# xmcd CD database file
#
# Track frame offsets:
#	150
#	13723
#	27381
#	42096
#	55797
#	70278
#	84813
#	99165
#	113925
#	125937
#	139856
#	155853
#	170661
#	185085
#	199652
#	214172
#	227465
#	242615
#	255590
#	270286
#
# Disc length: 3777 seconds
#
# Revision: 0
# Processed by: cddbd v1.5.2PL0 Copyright (c) Steve Scherf et al.
# Submitted via: CDex 1.51
#
DISCID=160ebf14
DTITLE=Various Artist - Cafe Jazz - Sophisticated Ladies
DYEAR=2006
DGENRE=Jazz
TTITLE0=Dinah Washington - Mad About The Boy
TTITLE1=Sarah Vaughan - Just Friends
TTITLE2=Peggy Lee - You Go To My Head
TTITLE3=Jo Stafford - You Belong To Me
TTITLE4=Margaret Whiting - Moonlight In Vermont
TTITLE5=Ella Fitzgerald - I've Got A Crush On You
TTITLE6=Billie Holiday - Solitude
TTITLE7=June Christy - I'll Remember April
TTITLE8=Dinah Washington - Since I Fell For You
TTITLE9=Sarah Vaughan - Street Of Dreams
TTITLE10=Rosemary Clooney - Tenderly
TTITLE11=Jo Stafford - There's No You
TTITLE12=Margaret Whiting - Old Devil Moon
TTITLE13=Ella Fitzgerald - Early Autumn
TTITLE14=Billie Holiday - Guilty
TTITLE15=June Christy - Do It Again
TTITLE16=Peggy Lee - I Don't Know Enough About You
TTITLE17=Sarah Vaughan - After Hours
TTITLE18=Ella Fitzgerald - A Sunday Kind Of Love
TTITLE19=Billie Holiday - That Old Devil Called Love
EXTD=YEAR: 2006
EXTT0=
EXTT1=
EXTT2=
EXTT3=
EXTT4=
EXTT5=
EXTT6=
EXTT7=
EXTT8=
EXTT9=
EXTT10=
EXTT11=
EXTT12=
EXTT13=
EXTT14=
EXTT15=
EXTT16=
EXTT17=
EXTT18=
EXTT19=
PLAYORDER=
